<svg xmlns="http://www.w3.org/2000/svg" viewBox="0 0 223.28 197.99"><defs><style>.cls-1{fill:#846459;}.cls-2{fill:#c2c1c0;}.cls-3{fill:#fff;}.cls-4{fill:#40403f;}.cls-5{fill:#e5335a;}</style></defs><title>snowman_1</title><g id="Layer_2" data-name="Layer 2"><g id="Layer_3_copy" data-name="Layer 3 copy"><polygon class="cls-1" points="74.51 89.58 71.51 84.91 16.98 119.94 1.35 115.13 0 119.53 11.9 123.2 1.81 129.68 4.8 134.35 10.33 130.8 8.87 141.89 12.8 142.4 14.7 128 74.51 89.58"/><polygon class="cls-1" points="223.28 119.8 215.68 111.6 222.24 111.3 221.98 105.75 209.99 106.31 217.57 96.43 213.92 93.63 203.97 106.59 139.22 109.62 139.48 115.17 210.5 111.84 220.38 122.49 223.28 119.8"/><g id="Layer_3" data-name="Layer 3"><ellipse class="cls-2" cx="103.66" cy="137.49" rx="75.02" ry="60.5"/></g><ellipse class="cls-3" cx="104.15" cy="131.89" rx="75.02" ry="60.5"/><ellipse class="cls-2" cx="106.01" cy="41.26" rx="44.27" ry="40.12"/><ellipse class="cls-3" cx="107.78" cy="40.5" rx="44.77" ry="40.5"/><polygon class="cls-4" points="135.63 29.35 130.13 29.35 127.38 34.11 130.13 38.88 135.63 38.88 138.38 34.11 135.63 29.35"/><polygon class="cls-4" points="102.78 29.4 97.69 27.34 93.35 30.72 94.12 36.17 99.21 38.23 103.55 34.84 102.78 29.4"/><path class="cls-5" d="M113.42,48.16h0a4.41,4.41,0,0,1,4.87-4.38l19.17,5.79-19.22,3A4.41,4.41,0,0,1,113.42,48.16Z"/><polygon class="cls-4" points="122.95 104.09 125.7 99.33 122.95 94.57 117.45 94.57 114.7 99.33 117.45 104.09 122.95 104.09"/><polygon class="cls-4" points="119.64 128.41 116.89 133.17 119.64 137.93 125.13 137.93 127.88 133.17 125.13 128.41 119.64 128.41"/><polygon class="cls-4" points="117.67 156.95 114.92 161.71 117.67 166.47 123.17 166.47 125.92 161.71 123.17 156.95 117.67 156.95"/><polygon class="cls-4" points="127.33 60.05 125.32 60.05 124.31 61.8 125.32 63.54 127.33 63.54 128.34 61.8 127.33 60.05"/><polygon class="cls-4" points="116.56 60.96 115.24 63.24 116.56 65.52 119.19 65.52 120.51 63.24 119.19 60.96 116.56 60.96"/><polygon class="cls-4" points="107.31 60.36 106.31 62.1 107.31 63.85 109.33 63.85 110.34 62.1 109.33 60.36 107.31 60.36"/></g></g></svg>